<svg width="21" height="7" fill="none" xmlns="http://www.w3.org/2000/svg"><path d="m2.335 1.704-.423.001-.06-.378a.595.595 0 0 0-.212-.133.845.845 0 0 0-.302-.047c-.247 0-.437.09-.57.27-.133.18-.199.415-.198.704v.1c.001.288.068.523.201.703.134.181.321.27.563.27a.925.925 0 0 0 .308-.05.512.512 0 0 0 .215-.133l.057-.379.424-.001.002.562c-.115.133-.26.24-.438.319-.177.079-.376.119-.596.12a1.217 1.217 0 0 1-.938-.394C.124 2.975.002 2.636 0 2.222v-.096c-.001-.412.119-.751.36-1.018.241-.266.554-.4.938-.4.22-.001.418.038.595.118.178.08.324.185.44.316l.002.562ZM3.4 3.215a.48.48 0 0 0 .386-.19V2.71h-.284c-.117.001-.206.029-.267.084a.259.259 0 0 0-.09.199c0 .07.022.124.067.163.045.039.108.058.188.058Zm.481.369a.992.992 0 0 1-.067-.214.72.72 0 0 1-.563.256c-.201 0-.361-.054-.48-.163a.58.58 0 0 1-.179-.447c0-.192.076-.341.23-.447.154-.105.38-.158.68-.16h.282v-.201a.303.303 0 0 0-.086-.23c-.057-.054-.142-.08-.253-.08a.599.599 0 0 0-.169.022.44.44 0 0 0-.12.052l-.035.22-.417.002v-.456c.101-.068.217-.126.348-.174.13-.047.273-.07.428-.071.254 0 .461.061.62.185.16.124.24.302.24.532l.003.849v.089a.62.62 0 0 0 .008.08l.169.022v.332l-.639.002ZM4.714 3.25l.266-.059-.004-1.273-.295-.057v-.334l.81-.002.026.3a.647.647 0 0 1 .185-.25.416.416 0 0 1 .264-.09.672.672 0 0 1 .172.023l-.057.505-.228-.005a.389.389 0 0 0-.2.048.307.307 0 0 0-.122.135l.003.999.266.056v.332l-1.085.003-.001-.332ZM6.21 1.027 6.209.693l.85-.003.008 2.495.268.057v.332l-1.089.003v-.332l.267-.058-.007-2.104-.296-.056ZM8.433 1.906a.289.289 0 0 0-.243.118.613.613 0 0 0-.11.31l.006.01.68-.003v-.05a.445.445 0 0 0-.084-.28c-.055-.071-.138-.106-.25-.105Zm0 1.704c-.297.001-.534-.093-.711-.282a1.018 1.018 0 0 1-.268-.723v-.076c-.001-.305.082-.556.249-.754a.835.835 0 0 1 .674-.297c.277 0 .492.082.646.25.154.166.231.391.232.676v.302L8.03 2.71l-.003.011c.01.135.056.247.136.334.08.087.19.13.328.13.123 0 .225-.013.306-.038.08-.025.17-.064.265-.118l.151.342a1.091 1.091 0 0 1-.329.17c-.134.045-.285.069-.45.07ZM10.168.958l.001.553.36-.002.002.39h-.36l.003 1.047c0 .08.016.136.05.17a.175.175 0 0 0 .132.051.9.9 0 0 0 .196-.021l.049.4a1.333 1.333 0 0 1-.382.058c-.191.001-.338-.051-.442-.156-.103-.105-.155-.27-.156-.499l-.003-1.048-.193.001-.001-.389h.193L9.615.96l.553-.002ZM11.267 2.555c0 .187.034.338.1.45.066.114.172.17.32.17.142 0 .247-.058.313-.172a.887.887 0 0 0 .098-.45v-.04a.879.879 0 0 0-.102-.446.34.34 0 0 0-.317-.172c-.145 0-.25.058-.315.174a.893.893 0 0 0-.098.446v.04Zm-.555-.038c0-.306.084-.558.255-.754.171-.196.408-.294.71-.295.304 0 .542.096.714.29.172.195.259.446.26.753v.04c0 .309-.084.56-.255.756-.171.194-.407.292-.709.293-.305 0-.543-.096-.715-.29-.172-.193-.259-.444-.26-.753v-.04ZM12.792 3.224l.266-.057-.004-1.274-.294-.056-.001-.334.81-.003.026.294a.75.75 0 0 1 .252-.245.656.656 0 0 1 .336-.089c.207 0 .37.064.486.194.117.13.176.335.177.613l.002.894.266.057.001.332-1.06.003V3.22l.237-.058-.003-.892c0-.138-.028-.236-.084-.293-.056-.058-.14-.086-.253-.086a.405.405 0 0 0-.343.172l.003 1.101.224.056.002.333-1.045.003v-.333ZM5.16 4.356v.186l-.164.032.002.802c0 .102.028.178.083.228.055.05.13.075.224.074a.324.324 0 0 0 .227-.075c.055-.05.082-.126.082-.228l-.003-.803-.163-.03v-.187l.636-.001v.185l-.164.033.002.802a.488.488 0 0 1-.17.4.68.68 0 0 1-.446.14.674.674 0 0 1-.445-.138.489.489 0 0 1-.17-.399l-.003-.802-.164-.031v-.186h.163l.308-.001h.165ZM6.169 5.705l.148-.032-.003-.708-.163-.031v-.186l.45-.001.014.163a.418.418 0 0 1 .14-.136.364.364 0 0 1 .187-.05c.115 0 .205.036.27.109.065.072.098.185.098.34l.002.497.148.032v.184l-.589.002v-.185l.132-.032L7 5.175c0-.076-.016-.13-.047-.163-.03-.032-.078-.047-.14-.047a.224.224 0 0 0-.19.096v.611l.125.032.001.184-.58.002-.001-.185ZM8.002 4.47h-.308l-.001-.23L8 4.237v.231ZM7.548 5.7l.15-.032-.003-.708-.165-.031v-.186l.473-.001.002.925.148.032v.184l-.604.002v-.185ZM8.69 4.926l-.108.02.152.511.02.108h.007l.022-.108.147-.51-.11-.021V4.74l.518-.001v.185l-.099.016-.334.942h-.294l-.34-.939-.1-.015v-.186l.518-.002v.186ZM9.895 4.953a.16.16 0 0 0-.135.066.34.34 0 0 0-.06.172l.003.006.378-.002v-.027a.247.247 0 0 0-.047-.157c-.03-.039-.077-.058-.139-.058Zm.03.948a.514.514 0 0 1-.395-.157.566.566 0 0 1-.149-.402V5.3c0-.17.046-.31.139-.42a.464.464 0 0 1 .374-.164c.155 0 .274.045.36.138a.537.537 0 0 1 .129.376v.168l-.682.002-.002.007a.298.298 0 0 0 .076.185.235.235 0 0 0 .182.072.594.594 0 0 0 .17-.02.78.78 0 0 0 .148-.066l.084.19a.608.608 0 0 1-.183.094.779.779 0 0 1-.25.039ZM10.505 5.692l.148-.032-.002-.708-.164-.031v-.186l.45-.001.015.166a.36.36 0 0 1 .103-.138.231.231 0 0 1 .146-.05.38.38 0 0 1 .096.012l-.032.281-.126-.003a.216.216 0 0 0-.112.027.17.17 0 0 0-.067.075l.001.555.148.031v.185l-.603.002v-.185ZM12.275 5.122h-.207l-.033-.142a.317.317 0 0 0-.186-.059.207.207 0 0 0-.129.038.111.111 0 0 0-.047.091c0 .035.015.063.046.086.03.023.09.043.182.06a.74.74 0 0 1 .315.123c.068.055.102.13.103.225a.3.3 0 0 1-.132.252.574.574 0 0 1-.349.1.73.73 0 0 1-.242-.039.618.618 0 0 1-.196-.11l-.004-.256h.215l.043.148a.178.178 0 0 0 .075.034c.032.007.065.011.1.01.062 0 .11-.01.142-.033a.106.106 0 0 0 .049-.092c0-.034-.017-.063-.05-.088a.508.508 0 0 0-.183-.065.732.732 0 0 1-.305-.12.265.265 0 0 1-.103-.22.32.32 0 0 1 .117-.248.494.494 0 0 1 .337-.105c.088 0 .172.011.252.035.079.024.14.054.186.091l.004.284ZM12.901 4.454l-.308.001v-.231h.307l.001.23Zm-.453 1.232.148-.032-.002-.708-.164-.031v-.186l.472-.001.003.925.148.032v.184l-.605.002v-.185ZM13.558 4.446v.28l.201-.001v.216h-.2l.002.582c0 .045.01.077.028.095a.098.098 0 0 0 .074.029.525.525 0 0 0 .108-.012l.027.222a.747.747 0 0 1-.212.033c-.106 0-.188-.029-.245-.087-.058-.058-.087-.15-.087-.278l-.002-.582h-.106v-.216h.105v-.28l.307-.001ZM15.093 4.907l-.107.016-.417 1.113a.614.614 0 0 1-.131.207c-.056.056-.139.084-.25.084a.401.401 0 0 1-.073-.006 1.358 1.358 0 0 1-.081-.018l.035-.225.03.004c.011.002.02.002.028.002.052 0 .091-.012.118-.037a.248.248 0 0 0 .064-.094l.034-.087-.365-.939-.106-.017-.001-.185.56-.002v.186l-.128.021.158.456.016.082.006.001.18-.54-.13-.02v-.186l.56-.002v.186Z" fill="#030404"/><path d="m20.989 2.388-.904.975.39-1.705-.52.275-.39-1.061-.39 1.061-.52-.275.39 1.705-.923-.996-.06.435-.756-.22.349.825-.32.087 1.08.808c1.232-.475 2.004-.337 2.456-.153-.067.26-.165.501-.295.724a2.142 2.142 0 0 0-.689-.22 2.989 2.989 0 0 0-.532-.032 5.122 5.122 0 0 0-.875.097l-.036.007c-.06.01-.118.02-.175.027-.827.109-1.337-.136-1.643-.415a2.885 2.885 0 0 1-.082-.279c.307.32.848.6 1.743.291l-1.21-.903.421-.115-.392-.927.861.25.075-.542.796.858-.351-1.53.626.33.381-1.037.15.022.374 1.016.626-.332-.351 1.531.697-.751-.001.17Z" fill="#fff"/><path d="M18.284 4.945c-.852.068-1.333-.17-1.604-.464.044.108.094.214.151.318l.01.017c.253.186.68.363 1.396.42.753.062 1.248.264 1.573.496a3.13 3.13 0 0 0 .517-.5c-.368-.21-.99-.371-2.043-.287Z" fill="#fff"/><path d="M16.84 4.816c.407.735 1.061 1.152 1.817 1.48.045.02.093.021.138 0 .222-.102.468-.204.675-.33.12-.074.234-.152.34-.234-.325-.232-.82-.434-1.572-.495-.717-.058-1.144-.235-1.397-.421ZM18.48 4.718c-.952.183-1.523-.079-1.854-.381l.054.144c.271.294.752.532 1.604.464 1.052-.084 1.675.077 2.043.287.093-.114.176-.233.249-.359-.403-.221-1.053-.355-2.096-.155Z" fill="#030404"/><path d="M20.871 4.149a3.34 3.34 0 0 0 .1-.713c.012-.35.017-.699.018-1.048l-.904.975.39-1.705-.52.275-.39-1.061-.39 1.061-.52-.275.39 1.705-.923-.996-.06.435-.757-.22.35.825-.32.087 1.08.808c1.232-.475 2.004-.337 2.456-.153Z" fill="#E91E27"/><path d="m20.644 1.44-.351 1.53.697-.751c0-.342 0-.683.003-1.025.001-.062-.014-.096-.08-.119a7.456 7.456 0 0 0-1.269-.32l.374 1.016.626-.332ZM18.287 4.35l-1.21-.904.421-.115-.392-.927.861.25.075-.542.796.858-.351-1.53.626.33.381-1.037A6.122 6.122 0 0 0 19.178.7c-.896-.071-1.764.07-2.61.364-.082.028-.11.065-.11.152.005.384.005 1.152.005 1.152 0 .347-.004.693 0 1.04.004.222.031.44.081.65.307.32.848.6 1.743.291Z" fill="#030404"/></svg>