<svg xmlns="http://www.w3.org/2000/svg" viewBox="0 0 4095 2400">
<g fill="#000" fill-rule="nonzero">
  <path d="M2946.93 12.2667c-3.6 6.8-20.26 38.5333-36.93 70.4C2847.73 201.6 2807.87 273.6 2768.53 337.467 2661.87 511.2 2546 645.333 2380.27 787.067c-16.27 14-36.14 30.4-44 36.533-109.47 85.2-260.14 150.267-423.87 182.93-80.13 16.14-148 22.4-226.4 21.07-37.47-.67-81.2-3.47-86.93-5.6-.94-.27-2 0-2.27.53-1.47 2.27 51.33 20.94 90.53 32 52 14.8 104.67 24.27 168.67 30.4 35.07 3.2 125.73 3.2 164 0 176.8-15.2 352.93-67.6 537.6-159.73 156-77.867 287.2-167.2 432.4-294.533 82-71.867 170.8-159.067 323.33-317.334C3436.27 185.733 3542.27 80.8 3604 25.8667c10.53-9.4667 21.33-19.20005 24-21.46672l4.67-4.266663-339.6-.13333302h-339.6L2946.93 12.2667Z"/>
  <path d="M3747.47 18.7999C3564.8 169.467 3359.6 394 3046.93 785.333c-83.2 104.134-91.2 114-116.4 143.334-155.06 181.203-302.8 287.733-521.06 376.003-79.07 32-183.34 67.06-242.8 81.86-71.6 17.6-137.47 27.6-224.67 33.74-30.67 2.13-140.93 2.13-174 0-175.6-11.47-339.73-41.87-553.33-102.4-110.94-31.47-189.34-56.4-435.337-138.54-110.666-36.93-219.066-72.93-240.666-79.86C364.4 1043.6 232 1006.8 99.3333 977.333c-34.5333-7.6-94.66663-20-97.46663-20C.266667 957.333 0 1008 0 1339.73v382.4l17.7333 1.74C118.8 1733.6 211.333 1751.73 516 1821.33c280.933 64.27 422.8 91.74 568.67 110 117.33 14.8 183.6 18.54 322 18.67 112.8 0 165.86-2 252.66-9.47 303.2-25.86 557.47-101.06 765.34-226.26 128.13-77.2 259.86-187.6 375.73-314.94 20.53-22.53 21.87-24 39.73-44.66 139.34-161.34 264.14-348.4 399.87-599.337 45.6-84.4 105.73-186.133 158.13-267.733 116.8-181.467 247.47-350.4 362.8-469.0668 9.07-9.3333 16.4-17.19997 16.4-17.733302 0-.4-1.6-.7999997-3.6-.666666-2.8 0-9.86 5.066668-26.26 18.666668Z"/>
  <path d="M3901.33 12.2666C3843.2 62.5333 3774.8 130.4 3721.6 190.267 3642.8 279.067 3556.93 392 3487.73 498c-26.8 41.067-32.13 49.467-48.4 75.333-60.66 97.067-107.06 178.4-198 347.334-104.66 194.263-151.46 275.063-214 369.333-30.13 45.33-46.93 69.33-70.53 100.67-107.2 142-214.53 243.33-356.13 336.26-166.54 109.47-365.6 192.27-590 245.74-30.8 7.33-98 21.6-119.34 25.33-7.86 1.33-34.8 6.13-38 6.8-1.86.4-10.8 1.73-20 3.07-9.2 1.46-18.13 2.93-20 3.33-1.86.4-5.73.93-8.66 1.33-6.8.8-32.14 4.4-43.34 6.14-4.8.66-12 1.6-16 2-4 .4-13.86 1.6-22 2.66-8 1.07-18 2.27-22 2.67-4 .4-9.46.93-12 1.2-2.53.4-8.53.93-13.33 1.47-4.8.4-11.33 1.06-14.67 1.33-22 2.4-56.53 5.33-78 6.67-6.53.4-14.66.93-18 1.33-3.33.27-14.13.93-24 1.33-9.86.4-21.33 1.07-25.33 1.34-47.6 3.33-169.47 3.33-231.33 0-5.87-.4-17.2-.94-25.34-1.34-19.2-1.06-45.86-2.8-61.06-4-4.14-.4-11.2-.93-15.6-1.33-22.8-1.87-38.8-3.33-45.34-4-2.53-.27-9.46-.93-15.33-1.33-5.87-.54-10.93-1.2-11.33-1.34-.4-.26-6.67-.8-14-1.33-7.34-.53-13.6-1.2-14-1.33-.4-.27-4.54-.8-9.34-1.34-9.2-.8-29.06-3.06-34.66-4-1.87-.26-6.94-.8-11.34-1.33-4.26-.53-8.8-1.07-10-1.33-2.8-.4-12.66-1.74-20.663-2.8-3.6-.4-15.067-1.87-25.334-3.34-10.266-1.46-21.066-2.93-24-3.33-2.933-.4-8.266-1.2-12-1.87-3.6-.66-9.333-1.6-12.666-2-11.734-1.6-26-3.73-34.667-5.2-1.867-.4-9.333-1.6-16.667-2.66-7.333-1.2-14.8-2.4-16.666-2.8-1.867-.4-6-1.07-9.334-1.47-3.333-.4-6.933-.93-8-1.2-1.066-.27-4-.93-6.266-1.33-2.4-.4-6.134-.94-8.4-1.34-2.134-.4-6-.93-8.267-1.33-2.4-.4-8-1.33-12.4-2.13-4.4-.8-9.733-1.74-12-2-2.133-.4-6.933-1.2-10.667-2-3.6-.67-8.8-1.6-11.333-2-2.533-.4-10.933-2-18.667-3.34-19.6-3.73-33.2-6.26-38.666-7.06-14.667-2.54-174.667-33.74-196-38.27-6.934-1.47-20.134-4.13-29.334-5.87-9.2-1.86-46.4-9.2-82.666-16.53-92.4-18.53-136.267-26.93-164-31.47-6.934-1.06-13.867-2.26-15.467-2.53-1.6-.27-6-.93-10-1.47-4-.4-10.533-1.33-14.533-2-7.734-1.33-8.267-1.33-35.334-4.66-9.466-1.2-18.8-2.4-20.666-2.67-6.667-1.07-40.934-4.53-52.0003-5.33-6.2667-.4-13.0667-1.07-15.3334-1.34-2.1333-.26-8.8-.93-14.6666-1.33-5.8667-.4-13.0667-1.07-16-1.33-2.9334-.27-11.8667-.94-20-1.34-8-.53-16.93337-1.06-19.60003-1.33L0 1849.6v290.8l8.4-.8c4.5333-.53 22.4-2.4 39.6-4.13 93.867-10 206.933-16.94 341.333-20.94 57.067-1.73 206.8-.93 259.334 1.34 106.4 4.8 172.533 9.33 351.333 24.13 176 14.67 251.6 20.13 348 25.2 234.8 12.53 421.33 13.6 597.33 3.47 65.6-3.87 155.87-11.87 211.34-18.67 8.8-1.07 18.66-2.4 22-2.8 31.46-3.6 147.06-21.6 176.66-27.2 132.4-25.6 206.54-42.53 283.34-64.93 242.66-70.54 431.06-165.47 644.26-324.67 76.14-56.8 122.94-95.07 295.74-240.93 166.93-141.07 255.2-211.74 350-280.4 44.26-32 109.6-76.14 148.93-100.54l17.07-10.53V-.00004022h-89.6L3915.33.133293l-14 12.133307Z"/>
  <path d="M0 653.867C0 772.4.4 869.333.8 869.333c2.13333 0 53.8667 12 91.8667 21.334C195.2 915.867 282 940.8 487.333 1004.27c133.6 41.2 167.2 51.46 210.934 64.4 48.533 14.4 104.133 31.2 211.733 64 255.33 77.73 386.93 113.2 524.13 141.2 154.94 31.6 277.87 45.06 410.54 45.06 72.93 0 122.8-2.8 188.66-11.06 193.87-24 370.8-85.2 525.47-182 144.93-90.67 284-216.937 472-428.537 48.67-54.8 131.87-150.666 132.8-152.8.4-1.066.27-1.866-.27-1.866-.53 0-14.66 13.333-31.2 29.6-258.66 254.266-448.66 392.8-678.8 494.803-130.26 57.73-244 87.33-381.33 99.2-34.27 2.93-143.2 3.33-176.67.66-127.46-10.26-230-30.66-368.66-73.6-220.8-68.26-444-155.063-656.67-255.463-39.2-18.534-153.2-75.334-206.667-103.067C423.467 610.133 232 523.733 39.2 452.933c-19.0667-7.066-35.6-13.2-36.8-13.6C.133333 438.4 0 449.2 0 653.867ZM504 2204.13c-176.533 4.8-352.8 19.74-492.6667 41.6l-10.666637 1.6-.4 76.4c-.133334 41.87 0 76.27.266666 76.27.266667 0 8.400001-2.93 18.266671-6.53 274.667-101.34 602.533-173.6 832.267-183.6 11.466-.54 20.933-1.34 20.933-2 0-1.6-17.733-2.4-77.333-3.87-62.267-1.47-234.934-1.47-290.667.13Z"/>
</g>
</svg>
